# xmcd
#
# Track frame offsets:
#	150
#	16463
#	33880
#	53739
#
# Disc length: 967 seconds
#
# Revision: 0
# Processed by: cddbd v1.5.2PL0 Copyright (c) Steve Scherf et al.
# Submitted via: audiograbber 1.83.01
#
DISCID=2603c504
DTITLE=BugGiRL - Rock n' Roll Hell
DYEAR=2008
DGENRE=Rock
TTITLE0=Rock n' Roll Hell (Radio Edit)
TTITLE1=Hot Tonite
TTITLE2=Ian Astbury
TTITLE3=Rock n' Roll Hell (Album Version)
EXTD=
EXTT0=
EXTT1=
EXTT2=
EXTT3=
PLAYORDER=
